<svg xmlns="http://www.w3.org/2000/svg" viewBox="0 0 640 400" fill="none"><defs><radialGradient id="bg"><stop stop-color="#dceff9"/><stop offset="1" stop-color="#f1f7fc"/></radialGradient><filter id="shadow" x="-30%" y="-30%" width="160%" height="180%"><feDropShadow dy="9" stdDeviation="12" flood-color="#477d9b" flood-opacity=".12"/></filter></defs><rect width="640" height="400" fill="url(#bg)"/><g font-family="Inter,Arial,PingFang SC,Microsoft YaHei,sans-serif" stroke-linecap="round" stroke-linejoin="round"><rect x="48" y="43" width="120" height="93" rx="16" fill="#fff" stroke="#d2e5f0" filter="url(#shadow)"/><path d="M78 92q-9-16 6-22 7-18 23-6 19-3 21 15H78 M84 99l-4 8 M99 99l-4 8 M114 99l-4 8" stroke="#167eaa" stroke-width="2" /><text x="108" y="120" fill="#506e81" font-size="12" text-anchor="middle">雨声</text><path d="M170 89H195Q213 89 213 200H252" stroke="#8db9ce" stroke-width="2" /><rect x="48" y="154" width="120" height="93" rx="16" fill="#fff" stroke="#d2e5f0" filter="url(#shadow)"/><path d="M75 197q9-12 18 0t18 0t18 0 M75 207q9-12 18 0t18 0t18 0" stroke="#167eaa" stroke-width="2" /><text x="108" y="231" fill="#506e81" font-size="12" text-anchor="middle">海浪</text><path d="M170 200H195Q213 200 213 200H252" stroke="#8db9ce" stroke-width="2" /><rect x="48" y="265" width="120" height="93" rx="16" fill="#fff" stroke="#d2e5f0" filter="url(#shadow)"/><path d="M81 284h35v18q-17 16-35 0z M116 287h6q13 9-6 13 M78 317h45 M91 277v-8 M104 277v-8" stroke="#167eaa" stroke-width="2" /><text x="108" y="342" fill="#506e81" font-size="12" text-anchor="middle">咖啡馆</text><path d="M170 311H195Q213 311 213 200H252" stroke="#8db9ce" stroke-width="2" /><rect x="252" y="55" width="342" height="292" rx="20" fill="#fff" stroke="#d2e5f0" filter="url(#shadow)"/><text x="276" y="84" fill="#506e81" font-size="12" >我的混音</text><circle cx="545" cy="82" r="4" fill="#167eaa"/><rect x="287" y="132.5" width="5" height="15" rx="2.5" fill="#91c4db"/><rect x="304" y="125.5" width="5" height="29" rx="2.5" fill="#167eaa"/><rect x="321" y="129.5" width="5" height="21" rx="2.5" fill="#167eaa"/><rect x="338" y="117.5" width="5" height="45" rx="2.5" fill="#91c4db"/><rect x="355" y="108.0" width="5" height="64" rx="2.5" fill="#167eaa"/><rect x="372" y="120.5" width="5" height="39" rx="2.5" fill="#167eaa"/><rect x="389" y="129.0" width="5" height="22" rx="2.5" fill="#91c4db"/><rect x="406" y="113.5" width="5" height="53" rx="2.5" fill="#167eaa"/><rect x="423" y="123.0" width="5" height="34" rx="2.5" fill="#167eaa"/><rect x="440" y="130.5" width="5" height="19" rx="2.5" fill="#91c4db"/><rect x="457" y="117.5" width="5" height="45" rx="2.5" fill="#167eaa"/><rect x="474" y="109.0" width="5" height="62" rx="2.5" fill="#167eaa"/><rect x="491" y="124.5" width="5" height="31" rx="2.5" fill="#91c4db"/><rect x="508" y="131.0" width="5" height="18" rx="2.5" fill="#167eaa"/><rect x="525" y="121.5" width="5" height="37" rx="2.5" fill="#167eaa"/><rect x="542" y="127.5" width="5" height="25" rx="2.5" fill="#91c4db"/><circle cx="423" cy="219" r="29" fill="#167eaa"/><path d="M416 207l20 12-20 12z" fill="#fff"/><path d="M285 280h77" stroke="#e0edf4" stroke-width="4" /><path d="M285 280h55.44" stroke="#167eaa" stroke-width="4" /><circle cx="340.44" cy="280" r="6" fill="#fff" stroke="#167eaa"/><text x="323" y="307" fill="#506e81" font-size="11" text-anchor="middle">雨声</text><path d="M384 280h77" stroke="#e0edf4" stroke-width="4" /><path d="M384 280h30.8" stroke="#167eaa" stroke-width="4" /><circle cx="414.8" cy="280" r="6" fill="#fff" stroke="#167eaa"/><text x="422" y="307" fill="#506e81" font-size="11" text-anchor="middle">海浪</text><path d="M483 280h77" stroke="#e0edf4" stroke-width="4" /><path d="M483 280h43.120000000000005" stroke="#167eaa" stroke-width="4" /><circle cx="526.12" cy="280" r="6" fill="#fff" stroke="#167eaa"/><text x="521" y="307" fill="#506e81" font-size="11" text-anchor="middle">咖啡馆</text></g></svg>